<svg xmlns="http://www.w3.org/2000/svg" xmlns:xlink="http://www.w3.org/1999/xlink" viewBox="0 0 1197.85 1670.82"><defs><style>.cls-1{fill:#fff;}.cls-2{fill:url(#Degradado_sin_nombre_12);}.cls-3{fill:url(#Degradado_sin_nombre_8);}.cls-4{fill:url(#Degradado_sin_nombre_4);}</style><linearGradient id="Degradado_sin_nombre_12" y1="513.29" x2="1197.85" y2="513.29" gradientUnits="userSpaceOnUse"><stop offset="0" stop-color="#50cad8"/><stop offset="0.4" stop-color="#7284dd"/><stop offset="0.81" stop-color="#9143e2"/><stop offset="1" stop-color="#9d29e4"/></linearGradient><linearGradient id="Degradado_sin_nombre_8" x1="664.89" y1="886.1" x2="1197.85" y2="886.1" gradientUnits="userSpaceOnUse"><stop offset="0.16" stop-color="#50cad8"/><stop offset="0.38" stop-color="#72a4d8"/><stop offset="0.66" stop-color="#977ad8"/><stop offset="0.87" stop-color="#ae60d8"/><stop offset="1" stop-color="#b756d8"/></linearGradient><linearGradient id="Degradado_sin_nombre_4" x1="-215.82" y1="258.39" x2="412.88" y2="258.39" gradientUnits="userSpaceOnUse"><stop offset="0" stop-color="#50cad8"/><stop offset="0.15" stop-color="#50b2da"/><stop offset="0.46" stop-color="#4f88de"/><stop offset="0.7" stop-color="#4e6ee0"/><stop offset="0.84" stop-color="#4e64e1"/></linearGradient></defs><g id="Capa_2" data-name="Capa 2"><g id="Capa_1-2" data-name="Capa 1"><rect class="cls-1" width="1197.85" height="1670.82"/><path class="cls-2" d="M1197.85,0V716.6c-163.76-28.62-334.8,42.34-465.4,198.34-25.86,30.9-51.18,68.52-67.56,111.64-68.42-22.83-126.26-47.51-198.82-101.68-30.09-22.47-60.66-45.78-89.36-73.08-33.8-32.16-66.09-69-102.83-92.48C187.59,704.14,90,729.38,0,775.4V367.57c47-8.41,95.76,5.69,137,41.56,31.3,27.19,58.32,65.92,91.27,88,63,42.21,140.73,13.59,190.89-58.94s73.8-182.56,70.9-288.61C488.72,99.71,482,49.63,479.79,0Z"/><path class="cls-3" d="M1197.85,716.6V981c-170.33,89.82-357,104.34-533,45.54,16.38-43.12,41.7-80.74,67.56-111.64C863.05,758.94,1034.09,688,1197.85,716.6Z"/><path class="cls-4" d="M419.19,438.19C369,510.72,291.32,539.34,228.3,497.13c-33-22.08-60-60.81-91.27-88-41.27-35.87-90-50-137-41.56V0H479.79c2.22,49.63,8.93,99.71,10.3,149.58C493,255.63,469.35,365.65,419.19,438.19Z"/></g></g></svg>