<svg xmlns="http://www.w3.org/2000/svg" viewBox="0 0 391.02 182.95"><defs><style>.cls-1{font-size:41.23px;font-family:Poppins-SemiBold, Poppins;font-weight:600;letter-spacing:0.3em;}.cls-1,.cls-3{fill:#373d9d;}.cls-2{font-family:Poppins-Bold, Poppins;font-weight:700;}</style></defs><g id="Capa_2" data-name="Capa 2"><g id="Capa_1-2" data-name="Capa 1"><text class="cls-1" transform="translate(184.73 108.49)">RETAIL<tspan class="cls-2"><tspan x="0" y="49.48">SBS</tspan></tspan></text><path class="cls-3" d="M91.36,3.46,74.75,24.92,42.56,0,1,53.64,97.6,128.39l8.3-10.73L20.07,51.22,45,19l85.83,66.45,24.91-32.19Zm37,63L85.48,33.22l8.3-10.72L136.7,55.72Z"/><path class="cls-3" d="M58.14,46.37,49.83,57.1l86,66.59-24.92,32.19-86-66.59L0,121.47l64.37,49.84L81,149.85l32.38,25.06,41.52-53.64ZM62,152.27,19,119.05l8.3-10.73,42.92,33.22Z"/></g></g></svg>