<?xml version="1.0" encoding="utf-8"?>
<!-- Generator: Adobe Illustrator 25.4.1, SVG Export Plug-In . SVG Version: 6.00 Build 0)  -->
<svg version="1.1" id="Capa_1" xmlns="http://www.w3.org/2000/svg" xmlns:xlink="http://www.w3.org/1999/xlink" x="0px" y="0px"
	 viewBox="0 0 103.6 37.3" style="enable-background:new 0 0 103.6 37.3;" xml:space="preserve">
<style type="text/css">
	.st0{enable-background:new    ;}
	.st1{fill:#FFFFFF;}
</style>
<g>
	<g class="st0">
		<path class="st1" d="M43.2,22.2l-1.4-2.4H41v2.4h-1v-6.1h2.1c0.5,0,0.9,0.1,1.2,0.2c0.3,0.2,0.6,0.4,0.7,0.7
			c0.2,0.3,0.2,0.6,0.2,0.9c0,0.4-0.1,0.8-0.3,1.1c-0.2,0.3-0.6,0.5-1.1,0.7l1.5,2.5H43.2z M41,19h1.1c0.4,0,0.7-0.1,0.8-0.3
			c0.2-0.2,0.3-0.4,0.3-0.8c0-0.3-0.1-0.6-0.3-0.7C42.8,17,42.5,17,42.1,17H41V19z"/>
		<path class="st1" d="M49.2,17v1.8h2.1v0.8h-2.1v1.9h2.4v0.8h-3.4v-6.1h3.4V17H49.2z"/>
		<path class="st1" d="M59.2,16.1V17h-1.6v5.3h-1V17h-1.6v-0.8H59.2z"/>
		<path class="st1" d="M65.7,21h-2.6l-0.4,1.2h-1l2.2-6.1H65l2.2,6.1h-1.1L65.7,21z M65.4,20.2l-1-2.8l-1,2.8H65.4z"/>
		<path class="st1" d="M71.6,16.1v6.1h-1v-6.1H71.6z"/>
		<path class="st1" d="M76.5,21.4h2.1v0.8h-3.1v-6.1h1V21.4z"/>
		<path class="st1" d="M83.7,22.1c-0.4-0.1-0.6-0.4-0.9-0.6c-0.2-0.3-0.3-0.6-0.3-1h1.6c0,0.2,0.1,0.4,0.2,0.5
			c0.1,0.1,0.3,0.2,0.5,0.2c0.2,0,0.4-0.1,0.5-0.2c0.1-0.1,0.2-0.2,0.2-0.4c0-0.2-0.1-0.3-0.2-0.4C85.3,20,85.2,20,85,19.9
			c-0.1-0.1-0.4-0.1-0.6-0.2c-0.4-0.1-0.7-0.2-1-0.4c-0.3-0.1-0.5-0.3-0.7-0.5c-0.2-0.2-0.3-0.6-0.3-0.9c0-0.6,0.2-1,0.6-1.3
			c0.4-0.3,1-0.5,1.6-0.5c0.7,0,1.2,0.2,1.6,0.5c0.4,0.3,0.6,0.8,0.7,1.4h-1.6c0-0.2-0.1-0.4-0.2-0.5c-0.1-0.1-0.3-0.2-0.5-0.2
			c-0.2,0-0.3,0-0.4,0.1s-0.2,0.2-0.2,0.4c0,0.2,0.1,0.4,0.3,0.5c0.2,0.1,0.5,0.2,0.9,0.4c0.4,0.1,0.7,0.3,1,0.4
			c0.2,0.1,0.5,0.3,0.6,0.5c0.2,0.2,0.3,0.5,0.3,0.9c0,0.4-0.1,0.7-0.3,1c-0.2,0.3-0.4,0.5-0.8,0.7c-0.3,0.2-0.7,0.3-1.2,0.3
			C84.4,22.3,84,22.2,83.7,22.1z"/>
		<path class="st1" d="M95.3,19.6c0.2,0.3,0.3,0.6,0.3,1c0,0.5-0.2,0.9-0.5,1.2c-0.4,0.3-0.9,0.5-1.5,0.5h-2.9v-6.2h2.8
			c0.6,0,1.1,0.1,1.5,0.4c0.4,0.3,0.5,0.7,0.5,1.2c0,0.4-0.1,0.7-0.3,0.9c-0.2,0.2-0.4,0.4-0.8,0.5C94.8,19.2,95.1,19.3,95.3,19.6z
			 M92.2,18.6h1c0.2,0,0.4-0.1,0.6-0.2c0.1-0.1,0.2-0.3,0.2-0.5c0-0.2-0.1-0.4-0.2-0.5c-0.1-0.1-0.3-0.2-0.6-0.2h-1V18.6z
			 M93.9,20.9c0.1-0.1,0.2-0.3,0.2-0.5c0-0.2-0.1-0.4-0.2-0.5c-0.1-0.1-0.3-0.2-0.6-0.2h-1.1V21h1.1C93.5,21,93.7,21,93.9,20.9z"/>
		<path class="st1" d="M100.1,22.1c-0.4-0.1-0.6-0.4-0.9-0.6c-0.2-0.3-0.3-0.6-0.3-1h1.6c0,0.2,0.1,0.4,0.2,0.5
			c0.1,0.1,0.3,0.2,0.5,0.2c0.2,0,0.4-0.1,0.5-0.2c0.1-0.1,0.2-0.2,0.2-0.4c0-0.2-0.1-0.3-0.2-0.4c-0.1-0.1-0.2-0.2-0.4-0.2
			c-0.1-0.1-0.4-0.1-0.6-0.2c-0.4-0.1-0.7-0.2-1-0.4c-0.3-0.1-0.5-0.3-0.7-0.5c-0.2-0.2-0.3-0.6-0.3-0.9c0-0.6,0.2-1,0.6-1.3
			c0.4-0.3,1-0.5,1.6-0.5c0.7,0,1.2,0.2,1.6,0.5c0.4,0.3,0.6,0.8,0.7,1.4h-1.6c0-0.2-0.1-0.4-0.2-0.5c-0.1-0.1-0.3-0.2-0.5-0.2
			c-0.2,0-0.3,0-0.4,0.1c-0.1,0.1-0.2,0.2-0.2,0.4c0,0.2,0.1,0.4,0.3,0.5c0.2,0.1,0.5,0.2,0.9,0.4c0.4,0.1,0.7,0.3,1,0.4
			c0.2,0.1,0.5,0.3,0.6,0.5c0.2,0.2,0.3,0.5,0.3,0.9c0,0.4-0.1,0.7-0.3,1c-0.2,0.3-0.4,0.5-0.8,0.7c-0.3,0.2-0.7,0.3-1.2,0.3
			C100.9,22.3,100.5,22.2,100.1,22.1z"/>
	</g>
	<g>
		<path class="st1" d="M19.5,0.7l-3.5,4.6L9.1,0L0.2,11.4l20.6,15.9l1.8-2.3L4.3,10.9l5.3-6.9l18.3,14.2l5.3-6.9L19.5,0.7z
			 M27.4,14.2l-9.1-7.1L20,4.8l9.2,7.1L27.4,14.2z"/>
		<path class="st1" d="M12.4,9.9l-1.8,2.3l18.3,14.2l-5.3,6.9L5.3,19L0,25.9l13.7,10.6l3.5-4.6l6.9,5.3L33,25.8L12.4,9.9z
			 M13.2,32.4l-9.1-7.1l1.8-2.3l9.1,7.1L13.2,32.4z"/>
	</g>
</g>
</svg>
