<svg id="logo-vertical" xmlns="http://www.w3.org/2000/svg" width="249.766" height="159.972" viewBox="0 0 249.766 159.972">
  <g id="Grupo_34" data-name="Grupo 34" transform="translate(0 125.935)">
    <path id="Trazado_46" data-name="Trazado 46" d="M1011.447,838.989l-7.574-13.161h-4.119v13.161h-5.4v-32.9h11.362a14.142,14.142,0,0,1,6.415,1.325,9.2,9.2,0,0,1,3.929,3.551,9.671,9.671,0,0,1,1.3,4.971,9.85,9.85,0,0,1-1.87,5.847,9.489,9.489,0,0,1-5.752,3.574l8.143,13.634ZM999.754,821.52h5.965a6.256,6.256,0,0,0,4.568-1.515,5.457,5.457,0,0,0,1.539-4.071,5.262,5.262,0,0,0-1.515-4,6.438,6.438,0,0,0-4.592-1.444h-5.965Z" transform="translate(-994.357 -805.282)" fill="#5872ff"/>
    <path id="Trazado_47" data-name="Trazado 47" d="M1062.033,810.4v9.657H1073.4v4.4h-11.362v10.084h12.782v4.4h-18.179V806h18.179v4.4Z" transform="translate(-1023.877 -805.24)" fill="#5872ff"/>
    <path id="Trazado_48" data-name="Trazado 48" d="M1128.915,806.087v4.4h-8.758v28.5h-5.4v-28.5h-8.805v-4.4Z" transform="translate(-1047.254 -805.282)" fill="#5872ff"/>
    <path id="Trazado_49" data-name="Trazado 49" d="M1174.442,832.223h-13.776l-2.367,6.723h-5.634L1164.453,806h6.249l11.788,32.949h-5.681Zm-1.515-4.4-5.349-15.29-5.4,15.29Z" transform="translate(-1069.394 -805.24)" fill="#5872ff"/>
    <path id="Trazado_50" data-name="Trazado 50" d="M1229.881,806.087v32.9h-5.4v-32.9Z" transform="translate(-1103.436 -805.282)" fill="#5872ff"/>
    <path id="Trazado_51" data-name="Trazado 51" d="M1259.041,834.633h11.125v4.356h-16.522v-32.9h5.4Z" transform="translate(-1117.258 -805.282)" fill="#5872ff"/>
    <path id="Trazado_52" data-name="Trazado 52" d="M1302.472,837.411a10.637,10.637,0,0,1-4.615-3.5,9.556,9.556,0,0,1-1.823-5.586h8.616a4.178,4.178,0,0,0,1.278,2.817,4.11,4.11,0,0,0,2.841.97,4.438,4.438,0,0,0,2.84-.829,2.769,2.769,0,0,0,1.042-2.3,2.721,2.721,0,0,0-.829-2.036,6.7,6.7,0,0,0-2.036-1.326,33.029,33.029,0,0,0-3.432-1.184,37.261,37.261,0,0,1-5.255-1.988,9.7,9.7,0,0,1-3.5-2.935,8.175,8.175,0,0,1-1.468-5.065,8.709,8.709,0,0,1,3.361-7.267,13.813,13.813,0,0,1,8.759-2.627,13.973,13.973,0,0,1,8.853,2.627,9.407,9.407,0,0,1,3.6,7.314h-8.758a3.426,3.426,0,0,0-1.183-2.533,4.169,4.169,0,0,0-2.792-.923,3.479,3.479,0,0,0-2.367.781,2.815,2.815,0,0,0-.9,2.248,2.786,2.786,0,0,0,1.514,2.51,24.718,24.718,0,0,0,4.734,1.94,43.983,43.983,0,0,1,5.232,2.083,9.971,9.971,0,0,1,3.479,2.888,7.736,7.736,0,0,1,1.468,4.876,9.574,9.574,0,0,1-1.444,5.16,10.114,10.114,0,0,1-4.19,3.692,14.337,14.337,0,0,1-6.485,1.373A17.086,17.086,0,0,1,1302.472,837.411Z" transform="translate(-1137.35 -804.557)" fill="#5872ff"/>
    <path id="Trazado_53" data-name="Trazado 53" d="M1383.343,824.511a8.711,8.711,0,0,1-1.16,11.74q-2.912,2.439-8.119,2.438h-15.48V805.457h14.959q5.065,0,7.93,2.32a8.41,8.41,0,0,1,1.326,11.172,7.953,7.953,0,0,1-4.095,2.7A7.74,7.74,0,0,1,1383.343,824.511Zm-16.664-5.61h5.3a4.693,4.693,0,0,0,3.054-.876,3.147,3.147,0,0,0,1.065-2.581,3.217,3.217,0,0,0-1.065-2.6,4.609,4.609,0,0,0-3.054-.9h-5.3Zm9.113,12.332a3.277,3.277,0,0,0,1.113-2.675,3.427,3.427,0,0,0-1.16-2.746,4.755,4.755,0,0,0-3.2-.994h-5.87v7.338h5.965A4.8,4.8,0,0,0,1375.792,831.234Z" transform="translate(-1166.999 -804.984)" fill="#5872ff"/>
    <path id="Trazado_54" data-name="Trazado 54" d="M1427.931,837.411a10.638,10.638,0,0,1-4.615-3.5,9.558,9.558,0,0,1-1.823-5.586h8.616a4.178,4.178,0,0,0,1.278,2.817,4.11,4.11,0,0,0,2.841.97,4.439,4.439,0,0,0,2.84-.829,2.769,2.769,0,0,0,1.042-2.3,2.721,2.721,0,0,0-.829-2.036,6.7,6.7,0,0,0-2.036-1.326,33.019,33.019,0,0,0-3.432-1.184,37.261,37.261,0,0,1-5.255-1.988,9.7,9.7,0,0,1-3.5-2.935,8.176,8.176,0,0,1-1.468-5.065,8.709,8.709,0,0,1,3.361-7.267,13.813,13.813,0,0,1,8.759-2.627,13.972,13.972,0,0,1,8.853,2.627,9.406,9.406,0,0,1,3.6,7.314H1437.4a3.426,3.426,0,0,0-1.184-2.533,4.169,4.169,0,0,0-2.793-.923,3.479,3.479,0,0,0-2.367.781,2.815,2.815,0,0,0-.9,2.248,2.786,2.786,0,0,0,1.514,2.51,24.715,24.715,0,0,0,4.734,1.94,43.974,43.974,0,0,1,5.232,2.083,9.971,9.971,0,0,1,3.479,2.888,7.736,7.736,0,0,1,1.468,4.876,9.573,9.573,0,0,1-1.444,5.16,10.114,10.114,0,0,1-4.19,3.692,14.338,14.338,0,0,1-6.485,1.373A17.085,17.085,0,0,1,1427.931,837.411Z" transform="translate(-1196.817 -804.557)" fill="#5872ff"/>
  </g>
  <g id="Grupo_36" data-name="Grupo 36" transform="translate(46.716)">
    <g id="Grupo_35" data-name="Grupo 35" transform="translate(65.486 34.015)">
      <path id="Trazado_55" data-name="Trazado 55" d="M1214.767,695.207a7.1,7.1,0,0,1-5.021-12.122l44.531-44.534a25.457,25.457,0,0,1,3.773-3.157l.1-.066a32.7,32.7,0,1,1-5.692,49.52,7.1,7.1,0,0,1,10.369-9.7,18.475,18.475,0,0,0,14.937,5.808,18.666,18.666,0,0,0,17.056-17.711,18.5,18.5,0,0,0-28.808-16.086l-.075.051a11.83,11.83,0,0,0-1.615,1.386l-44.533,44.535A7.081,7.081,0,0,1,1214.767,695.207Z" transform="translate(-1207.666 -629.807)" fill="#5872ff"/>
    </g>
    <path id="Trazado_56" data-name="Trazado 56" d="M1173.012,574.719a32.487,32.487,0,0,0-23.123-9.578,31.773,31.773,0,0,0-23.991,10.63,32.743,32.743,0,0,0,1.962,44.1,18.484,18.484,0,0,1,.531,25.6c-.01.011-.021.026-.031.037a18.5,18.5,0,0,1-25.564-26.726,18.547,18.547,0,0,1,4.482-3.309,7.1,7.1,0,0,0-6.6-12.577,32.7,32.7,0,0,0,15.191,61.664,31.836,31.836,0,0,0,23.97-10.6,32.706,32.706,0,0,0-1.941-44.132,16.758,16.758,0,1,1,20.583,4.4,7.1,7.1,0,1,0,6.6,12.577,32.706,32.706,0,0,0,7.927-52.085Z" transform="translate(-1083.17 -565.14)" fill="#5872ff"/>
  </g>
</svg>
