<?xml version="1.0" encoding="utf-8"?>
<!-- Generator: Adobe Illustrator 25.4.1, SVG Export Plug-In . SVG Version: 6.00 Build 0)  -->
<svg version="1.1" id="Capa_1" xmlns="http://www.w3.org/2000/svg" xmlns:xlink="http://www.w3.org/1999/xlink" x="0px" y="0px"
	 viewBox="0 0 50 50" style="enable-background:new 0 0 50 50;" xml:space="preserve">
<style type="text/css">
	.st0{fill:#0B78CE;}
	.st1{fill:#0BAFEA;}
	.st2{fill:none;stroke:#000000;stroke-miterlimit:10;}
	.st3{fill:#FFDF07;}
	.st4{fill:#FF8708;}
	.st5{fill:#D4E00A;}
	.st6{fill:#4F8BC7;}
	.st7{fill:#D38EBF;}
	.st8{fill:#F70A0B;}
	.st9{fill:#FFFFFF;}
	.st10{font-family:'Montserrat-Regular';}
	.st11{font-size:1.4195px;}
	.st12{font-size:2.338px;}
</style>
<g>
	<circle class="st0" cx="24.4" cy="25" r="17.4"/>
	<path class="st1" d="M35.47,17.02c0.07,0.01,0.14,0.02,0.21,0.03c-0.03,0.03-0.06,0.05-0.1,0.08
		C35.55,17.1,35.51,17.06,35.47,17.02z"/>
	<path class="st2" d="M38.1,18.47c-0.05-0.01-0.09-0.02-0.14-0.03c0.02-0.03,0.03-0.06,0.05-0.1C38.04,18.38,38.07,18.43,38.1,18.47
		z"/>
	<path class="st2" d="M38.1,18.47c-0.05-0.01-0.09-0.02-0.14-0.03c0.02-0.03,0.03-0.06,0.05-0.1C38.04,18.38,38.07,18.43,38.1,18.47
		z"/>
	<path class="st1" d="M37.07,15.25c0,0.32,0.03,0.64,0.08,0.95c-0.54,0.21-1.03,0.5-1.47,0.86c-0.07-0.01-0.14-0.02-0.21-0.03
		c-1.02-1-1.65-2.4-1.65-3.95c0-0.87,0.2-1.7,0.56-2.44c1.33,0.34,2.46,1.16,3.21,2.27C37.25,13.62,37.07,14.41,37.07,15.25z"/>
	<path class="st3" d="M38.01,18.34c0.24-0.51,0.4-1.06,0.47-1.63c0.52-0.21,1-0.5,1.43-0.85c1.16,0.15,2.2,0.67,3.02,1.42
		c0.02,0.02,0.04,0.04,0.07,0.06c-0.75,1.25-1.98,2.18-3.44,2.53c-0.42,0.1-0.86,0.16-1.31,0.16c-0.45,0-0.89-0.05-1.31-0.16
		c-0.96-0.23-1.82-0.72-2.51-1.38c0.31-0.51,0.7-0.97,1.15-1.36c0.66,0.61,1.48,1.07,2.38,1.3"/>
	<path class="st4" d="M38.48,16.71c0.03-0.23,0.05-0.47,0.05-0.71c0-0.05,0-0.1,0-0.15c0.21-0.03,0.43-0.04,0.65-0.04
		c0.25,0,0.5,0.02,0.74,0.05C39.49,16.21,39.01,16.5,38.48,16.71z"/>
	<path class="st5" d="M41.95,11.57c0,1.73-0.79,3.27-2.04,4.29c-0.24-0.03-0.49-0.05-0.74-0.05c-0.22,0-0.44,0.01-0.65,0.04
		c-0.03-1.09-0.37-2.1-0.94-2.94c0.7-1.5,2.06-2.64,3.71-3.04c0.12-0.03,0.24-0.06,0.37-0.08c0.05,0.15,0.09,0.29,0.13,0.44
		C41.9,10.67,41.95,11.11,41.95,11.57z"/>
	<path class="st6" d="M38.53,15.85c-0.48,0.06-0.94,0.17-1.38,0.35c-0.05-0.31-0.08-0.62-0.08-0.95c0-0.84,0.19-1.63,0.52-2.34
		C38.16,13.75,38.5,14.76,38.53,15.85z"/>
	<path class="st7" d="M38.53,16c0,0.24-0.02,0.48-0.05,0.71c-0.36,0.14-0.73,0.25-1.12,0.32c-0.09-0.27-0.16-0.55-0.21-0.83
		c0.44-0.17,0.9-0.29,1.38-0.35C38.53,15.9,38.53,15.95,38.53,16z"/>
	<path class="st8" d="M38.48,16.71c-0.07,0.58-0.24,1.12-0.47,1.63c-0.01,0.03-0.03,0.06-0.05,0.1c-0.9-0.23-1.72-0.68-2.38-1.3
		c0.03-0.03,0.06-0.05,0.1-0.08c0.44-0.36,0.93-0.65,1.47-0.86c0.05,0.28,0.12,0.56,0.21,0.83C37.75,16.96,38.13,16.85,38.48,16.71z
		"/>
	<path class="st9" d="M24.02,26.51c0,1.31-1.03,2.37-2.33,2.42c-0.03,0-0.06,0-0.09,0h-9.43v-1.79h9.16c0.34,0,0.62-0.28,0.62-0.64
		c0-0.35-0.28-0.64-0.62-0.64h-6.88c-0.11,0-0.22-0.01-0.33-0.02c-1.18-0.16-2.1-1.17-2.1-2.38c0-1.33,1.09-2.41,2.43-2.41h8.95
		v1.79h-8.78c-0.34,0-0.62,0.28-0.62,0.62c0,0.31,0.23,0.57,0.53,0.61c0.03,0.01,0.06,0.01,0.1,0.01c0.03,0,0.07,0,0.1-0.01h6.88
		c0.55,0,1.06,0.18,1.47,0.5C23.65,25.02,24.02,25.72,24.02,26.51z"/>
	<path class="st9" d="M34.33,25.85c0,0.46-0.24,0.86-0.6,1.08c-0.2,0.12-0.43,0.19-0.68,0.19h-6.73v-4.27h6.73
		c0.3,0,0.58,0.1,0.8,0.28c0.29,0.23,0.48,0.59,0.48,1V25.85z M36.25,23.54c-0.07-0.42-0.22-0.82-0.45-1.16
		c-0.53-0.8-1.44-1.32-2.46-1.32h-7v-3.11h-2.1V29h9.1c1.03,0,1.94-0.53,2.46-1.32c0.08-0.12,0.15-0.25,0.21-0.38
		c0.18-0.38,0.28-0.8,0.28-1.25v-2.04C36.29,23.85,36.27,23.69,36.25,23.54z"/>
	<text transform="matrix(1 0 0 1 12.4316 20.0732)" class="st9 st10 st11">F</text>
	<text transform="matrix(1 0 0 1 13.5947 20.0732)" class="st9 st10 st11">A</text>
	<text transform="matrix(1 0 0 1 14.9229 20.0732)" class="st9 st10 st11">R</text>
	<text transform="matrix(1 0 0 1 16.2607 20.0732)" class="st9 st10 st11">M</text>
	<text transform="matrix(1 0 0 1 17.9268 20.0732)" class="st9 st10 st11">A</text>
	<text transform="matrix(1 0 0 1 19.2412 20.0732)" class="st9 st10 st11">C</text>
	<text transform="matrix(1 0 0 1 20.5732 20.0732)" class="st9 st10 st11">I</text>
	<text transform="matrix(1 0 0 1 21.312 20.0732)" class="st9 st10 st11">A</text>
	<text transform="matrix(1 0 0 1 22.6406 20.0732)" class="st9 st10 st11">S</text>
	<text transform="matrix(1 0 0 1 13.2666 31.8105)" class="st9 st10 st12">S</text>
	<text transform="matrix(1 0 0 1 15.3428 31.8105)" class="st9 st10 st12">A</text>
	<text transform="matrix(1 0 0 1 17.6577 31.8105)" class="st9 st10 st12">L</text>
	<text transform="matrix(1 0 0 1 19.6406 31.8105)" class="st9 st10 st12">C</text>
	<text transform="matrix(1 0 0 1 21.9248 31.8105)" class="st9 st10 st12">O</text>
	<text transform="matrix(1 0 0 1 24.5239 31.8105)" class="st9 st10 st12">B</text>
	<text transform="matrix(1 0 0 1 26.9258 31.8105)" class="st9 st10 st12">R</text>
	<text transform="matrix(1 0 0 1 29.2539 31.8105)" class="st9 st10 st12">A</text>
	<text transform="matrix(1 0 0 1 31.5684 31.8105)" class="st9 st10 st12">N</text>
	<text transform="matrix(1 0 0 1 34.1074 31.8105)" class="st9 st10 st12">D</text>
</g>
</svg>
