<svg xmlns="http://www.w3.org/2000/svg" viewBox="0 0 487.5 219.51"><defs><style>.cls-1{fill:#fff;}.cls-2{fill:none;stroke:#fff;stroke-miterlimit:10;stroke-width:3px;}</style></defs><g id="Capa_2" data-name="Capa 2"><g id="Capa_1-2" data-name="Capa 1"><path class="cls-1" d="M252,2.11,241.85,15.23,222.18,0,196.8,32.78l59,45.68,5.07-6.56L208.43,31.3l15.23-19.67,52.45,40.6,15.22-19.66ZM274.63,40.6,248.4,20.3l5.08-6.55,26.22,20.3Z"/><path class="cls-1" d="M231.69,28.34l-5.07,6.55,52.56,40.7L264,95.26l-52.57-40.7L196.17,74.23l39.33,30.45,10.15-13.11,19.79,15.32,25.37-32.78ZM234,93.05,207.8,72.75l5.08-6.55L239.1,86.5Z"/><path class="cls-1" d="M93.25,146.74c6.77,0,10,3.75,10,8.45,0,3.67-2,7.18-6.84,8.25l7.21,12H99.11l-6.85-11.75H87.73v11.75H84V146.74Zm0,3.09H87.73v10.89h5.52c4.25,0,6.11-2.31,6.11-5.53S97.54,149.83,93.25,149.83Z"/><path class="cls-1" d="M136.88,149.79H125.17v9.61h10.47v3.09H125.17v9.9h11.71v3.09H121.42V146.7h15.46Z"/><path class="cls-1" d="M153.16,146.74h19.46v3h-7.83v25.69H161V149.79h-7.88Z"/><path class="cls-1" d="M206.6,169.09H194.07l-2.31,6.39h-4l10.39-28.57h4.33l10.35,28.57h-4Zm-6.27-17.56L195.14,166h10.39Z"/><path class="cls-1" d="M229.77,146.74h3.75v28.74h-3.75Z"/><path class="cls-1" d="M256,146.74v25.69H266.1v3H252.29V146.74Z"/><path class="cls-1" d="M315.7,175.77c-6.23,0-11.09-3.09-11.3-9h7.51a3.31,3.31,0,0,0,3.58,3.3c2.06,0,3.38-1,3.38-2.72,0-5.36-14.47-2.48-14.39-12.74,0-5.49,4.5-8.54,10.56-8.54,6.31,0,10.55,3.14,10.84,8.66h-7.63a3.13,3.13,0,0,0-3.33-3c-1.69,0-3,.83-3,2.64,0,5,14.3,2.76,14.3,12.45C326.25,171.73,322.46,175.77,315.7,175.77Z"/><path class="cls-1" d="M356.44,175.48H343V146.54h13c5.9,0,9.4,2.92,9.4,7.5a6.58,6.58,0,0,1-4.9,6.6,7,7,0,0,1,5.56,7C366,172.39,362.54,175.48,356.44,175.48Zm-1.82-23.3H350v6.07h4.62c2.31,0,3.59-1,3.59-3S356.93,152.18,354.62,152.18Zm.5,11.22H350v6.39h5.2c2.35,0,3.71-1.07,3.71-3.13S357.47,163.4,355.12,163.4Z"/><path class="cls-1" d="M393,175.77c-6.23,0-11.09-3.09-11.3-9h7.5a3.32,3.32,0,0,0,3.59,3.3c2.06,0,3.38-1,3.38-2.72,0-5.36-14.47-2.48-14.39-12.74,0-5.49,4.5-8.54,10.56-8.54,6.31,0,10.55,3.14,10.84,8.66h-7.63a3.13,3.13,0,0,0-3.34-3c-1.69,0-3,.83-3,2.64,0,5,14.3,2.76,14.3,12.45C403.52,171.73,399.73,175.77,393,175.77Z"/><line class="cls-2" y1="218.01" x2="487.5" y2="218.01"/></g></g></svg>